# xmcd
#
# Track frame offsets: 
#        150
#        34865
#        55120
#        66743
#        73083
#        100715
#        122628
#        148110
#        159273
#
# Disc length: 2675 seconds
#
# Revision: 8
# Processed by: cddbd v1.5.2PL0 Copyright (c) Steve Scherf et al.
# Submitted via: ExactAudioCopy v1.0b3
#
DISCID=810a7109
DTITLE=Zephyr - Zephyr
DYEAR=1900
DGENRE=Blues
TTITLE0=Sail On
TTITLE1=Sun's A-Risin'
TTITLE2=Raindrops
TTITLE3=Boom-Ba-Boom
TTITLE4=Somebody Listen
TTITLE5=Cross The River
TTITLE6=St. James Infirmary
TTITLE7=Huna Buna
TTITLE8=Hard Chargin' Woman
EXTD=Track 2 name corrected.
EXTT0=
EXTT1=
EXTT2=
EXTT3=
EXTT4=
EXTT5=
EXTT6=
EXTT7=
EXTT8=
PLAYORDER=
